# xmcd CD database file
#
# Track frame offsets:
#	150
#	19990
#	41377
#	64195
#	81967
#	100235
#	129927
#	140117
#	162422
#	181180
#	209557
#
# Disc length: 3064 seconds
#
# Revision: 0
# Processed by: cddbd v1.4PL0 Copyright (c) Steve Scherf et al.
# Submitted via: CDex 1.50
#
DISCID=9a0bf60b
DTITLE=Andrea Koziol - Simple
DYEAR=2001
DGENRE=Jazz
TTITLE0=The Good Old Days
TTITLE1=Breathe
TTITLE2=Rock the Boat
TTITLE3=Unsubscribing
TTITLE4=Mmm I Love You
TTITLE5=Tell It Like It Is
TTITLE6=Mercy
TTITLE7=Invisible
TTITLE8=Sucker
TTITLE9=Waiting on Spring
TTITLE10=Hopeful
EXTD=YEAR: 2001
EXTT0=
EXTT1=
EXTT2=
EXTT3=
EXTT4=
EXTT5=
EXTT6=
EXTT7=
EXTT8=
EXTT9=
EXTT10=
PLAYORDER=
